# This file uses centimeters as units for non-parametric coordinates.

mtllib Bench_Tilings.mtl
g default
v 5.609276 5.274978 0.699152
v 5.609276 5.274978 0.982738
v 5.609276 1.916432 0.982738
v 5.609276 1.916432 0.699152
v 0.000000 5.274978 0.699152
v 0.000000 5.274978 0.982738
v -5.609276 5.274978 0.699152
v -5.609276 5.274978 0.982738
v 0.000000 1.916432 0.699152
v 0.000000 1.916432 0.982738
v -5.609276 1.916432 0.982738
v -5.609276 1.916432 0.699152
v 5.609276 1.730770 0.982738
v 5.609276 1.916432 0.982738
v 5.343128 1.730770 -1.342687
v 5.609276 1.730770 -1.076539
v 5.412012 1.730770 -1.333618
v 5.476202 1.730770 -1.307030
v 5.531323 1.730770 -1.264734
v 5.573619 1.730770 -1.209613
v 5.600207 1.730770 -1.145423
v 5.609276 1.916432 -1.076539
v 5.343128 1.916432 -1.342687
v 5.600207 1.916432 -1.145423
v 5.573619 1.916432 -1.209613
v 5.531323 1.916432 -1.264734
v 5.476202 1.916432 -1.307030
v 5.412012 1.916432 -1.333618
v 0.000000 1.730770 0.982738
v 0.000000 1.916432 0.982738
v 0.000000 1.730770 -1.342687
v 0.000000 1.916432 -1.342687
v -5.609276 1.730770 0.982738
v -5.609276 1.916432 0.982738
v -5.343128 1.730770 -1.342687
v -5.609276 1.730770 -1.076539
v -5.412012 1.730770 -1.333618
v -5.476202 1.730770 -1.307030
v -5.531323 1.730770 -1.264734
v -5.573619 1.730770 -1.209613
v -5.600207 1.730770 -1.145423
v -5.609276 1.916432 -1.076539
v -5.343128 1.916432 -1.342687
v -5.600207 1.916432 -1.145423
v -5.573619 1.916432 -1.209613
v -5.531323 1.916432 -1.264734
v -5.476202 1.916432 -1.307030
v -5.412012 1.916432 -1.333618
vt 0.026573 0.953704
vt 0.026573 0.513253
vt 0.290292 0.513253
vt 0.290292 0.953704
vt 0.518014 0.538933
vt 0.540282 0.538933
vt 0.540281 0.979384
vt 0.518014 0.979384
vt 0.758780 0.265496
vt 0.781048 0.265496
vt 0.781048 0.705946
vt 0.758780 0.705946
vt 0.529112 0.051114
vt 0.529112 0.491565
vt 0.265393 0.491565
vt 0.265393 0.051114
vt 0.659451 0.813894
vt 0.659451 0.550176
vt 0.681719 0.550176
vt 0.681719 0.813894
vt 0.290292 0.513253
vt 0.026573 0.513253
vt 0.518014 0.979384
vt 0.540281 0.979384
vt 0.758780 0.705946
vt 0.781048 0.705946
vt 0.265393 0.491565
vt 0.529112 0.491565
vt 0.659451 0.813894
vt 0.681719 0.813894
vt 0.681719 0.550176
vt 0.659451 0.550176
vt 0.077657 0.489622
vt 0.072301 0.488917
vt 0.067310 0.486850
vt 0.063024 0.483561
vt 0.059736 0.479276
vt 0.057668 0.474285
vt 0.056963 0.468929
vt 0.056963 0.053495
vt 0.237768 0.053495
vt 0.237768 0.489622
vt 0.492613 0.537127
vt 0.492613 0.952561
vt 0.491908 0.957917
vt 0.489841 0.962907
vt 0.486552 0.967193
vt 0.482266 0.970482
vt 0.477276 0.972549
vt 0.471920 0.973254
vt 0.311809 0.973254
vt 0.311809 0.537127
vt 0.077657 0.489622
vt 0.237768 0.489622
vt 0.056963 0.468929
vt 0.057668 0.474285
vt 0.059736 0.479276
vt 0.063024 0.483561
vt 0.067310 0.486850
vt 0.072301 0.488917
vt 0.311809 0.973254
vt 0.471920 0.973254
vt 0.477276 0.972549
vt 0.482266 0.970482
vt 0.486552 0.967193
vt 0.489841 0.962907
vt 0.491908 0.957917
vt 0.492613 0.952561
vt 0.974295 0.492259
vt 0.988731 0.492259
vt 0.988731 0.652372
vt 0.974295 0.652372
vt 0.946206 0.029862
vt 0.960642 0.029862
vt 0.960642 0.465993
vt 0.946207 0.465993
vt 0.974296 0.044418
vt 0.988731 0.044418
vt 0.988731 0.459846
vt 0.974295 0.459846
vt 0.974295 0.486857
vt 0.988731 0.486857
vt 0.974295 0.481455
vt 0.988731 0.481455
vt 0.974295 0.476053
vt 0.988731 0.476053
vt 0.974295 0.470651
vt 0.988731 0.470651
vt 0.974295 0.465248
vt 0.988731 0.465248
vt 0.974295 0.492259
vt 0.974295 0.652372
vt 0.988731 0.652372
vt 0.988731 0.492259
vt 0.946206 0.029862
vt 0.960642 0.029862
vt 0.974295 0.459846
vt 0.988731 0.459846
vt 0.988731 0.486857
vt 0.974295 0.486857
vt 0.988731 0.481455
vt 0.974295 0.481455
vt 0.988731 0.476053
vt 0.974295 0.476053
vt 0.988731 0.470651
vt 0.974295 0.470651
vt 0.988731 0.465248
vt 0.974295 0.465248
vn 0.000000 -0.000000 1.000000
vn 0.000000 -0.000000 1.000000
vn 0.000000 -0.000000 1.000000
vn 0.000000 -0.000000 1.000000
vn 0.000000 -1.000000 0.000000
vn 0.000000 -1.000000 0.000000
vn 0.000000 -1.000000 0.000000
vn 0.000000 -1.000000 0.000000
vn 0.000000 1.000000 0.000000
vn 0.000000 1.000000 0.000000
vn 0.000000 1.000000 0.000000
vn 0.000000 1.000000 0.000000
vn 0.000000 0.000000 -1.000000
vn 0.000000 0.000000 -1.000000
vn 0.000000 0.000000 -1.000000
vn 0.000000 0.000000 -1.000000
vn 1.000000 -0.000000 0.000000
vn 1.000000 -0.000000 0.000000
vn 1.000000 -0.000000 0.000000
vn 1.000000 -0.000000 0.000000
vn 0.000000 -0.000000 1.000000
vn 0.000000 -0.000000 1.000000
vn 0.000000 -0.000000 1.000000
vn 0.000000 -0.000000 1.000000
vn 0.000000 -1.000000 0.000000
vn 0.000000 -1.000000 0.000000
vn 0.000000 -1.000000 0.000000
vn 0.000000 -1.000000 0.000000
vn 0.000000 1.000000 0.000000
vn 0.000000 1.000000 0.000000
vn 0.000000 1.000000 0.000000
vn 0.000000 1.000000 0.000000
vn 0.000000 0.000000 -1.000000
vn 0.000000 0.000000 -1.000000
vn 0.000000 0.000000 -1.000000
vn 0.000000 0.000000 -1.000000
vn -1.000000 0.000000 0.000000
vn -1.000000 0.000000 0.000000
vn -1.000000 0.000000 0.000000
vn -1.000000 0.000000 0.000000
vn 0.000000 1.000000 0.000000
vn 0.000000 1.000000 0.000000
vn 0.000000 1.000000 0.000000
vn 0.000000 1.000000 0.000000
vn 0.000000 1.000000 0.000000
vn 0.000000 1.000000 0.000000
vn 0.000000 1.000000 0.000000
vn 0.000000 1.000000 0.000000
vn 0.000000 1.000000 0.000000
vn 0.000000 1.000000 0.000000
vn 0.000000 -1.000000 0.000000
vn 0.000000 -1.000000 0.000000
vn 0.000000 -1.000000 0.000000
vn 0.000000 -1.000000 0.000000
vn 0.000000 -1.000000 0.000000
vn 0.000000 -1.000000 0.000000
vn 0.000000 -1.000000 0.000000
vn 0.000000 -1.000000 0.000000
vn 0.000000 -1.000000 0.000000
vn 0.000000 -1.000000 0.000000
vn 0.000000 1.000000 0.000000
vn 0.000000 1.000000 0.000000
vn 0.000000 1.000000 0.000000
vn 0.000000 1.000000 0.000000
vn 0.000000 1.000000 0.000000
vn 0.000000 1.000000 0.000000
vn 0.000000 1.000000 0.000000
vn 0.000000 1.000000 0.000000
vn 0.000000 1.000000 0.000000
vn 0.000000 1.000000 0.000000
vn 0.000000 -1.000000 0.000000
vn 0.000000 -1.000000 0.000000
vn 0.000000 -1.000000 0.000000
vn 0.000000 -1.000000 0.000000
vn 0.000000 -1.000000 0.000000
vn 0.000000 -1.000000 0.000000
vn 0.000000 -1.000000 0.000000
vn 0.000000 -1.000000 0.000000
vn 0.000000 -1.000000 0.000000
vn 0.000000 -1.000000 0.000000
vn 0.719739 -0.692638 -0.047203
vn 0.719739 0.692638 -0.047203
vn 0.577350 0.577350 0.577350
vn 0.577350 -0.577350 0.577350
vn 0.577350 -0.577350 0.577350
vn 0.577350 0.577350 0.577350
vn 0.000000 0.707107 0.707107
vn 0.000000 -0.707107 0.707107
vn 0.000000 -0.707107 -0.707107
vn 0.000000 0.707107 -0.707107
vn 0.047203 0.692638 -0.719739
vn 0.047203 -0.692638 -0.719739
vn 0.719739 0.692638 -0.047203
vn 0.719739 -0.692638 -0.047203
vn 0.709211 -0.678910 -0.190003
vn 0.709211 0.678910 -0.190003
vn 0.709211 0.678910 -0.190003
vn 0.709211 -0.678910 -0.190003
vn 0.635888 -0.678888 -0.367093
vn 0.635888 0.678888 -0.367093
vn 0.635888 0.678888 -0.367093
vn 0.635888 -0.678888 -0.367093
vn 0.519189 -0.678886 -0.519189
vn 0.519189 0.678886 -0.519189
vn 0.519189 0.678886 -0.519189
vn 0.519189 -0.678886 -0.519189
vn 0.367093 -0.678888 -0.635888
vn 0.367093 0.678888 -0.635888
vn 0.367093 0.678888 -0.635888
vn 0.367093 -0.678888 -0.635888
vn 0.190003 -0.678910 -0.709211
vn 0.190003 0.678910 -0.709211
vn 0.190003 0.678910 -0.709211
vn 0.190003 -0.678910 -0.709211
vn 0.047203 -0.692638 -0.719739
vn 0.047203 0.692638 -0.719739
vn -0.719739 -0.692638 -0.047203
vn -0.577350 -0.577350 0.577350
vn -0.577350 0.577350 0.577350
vn -0.719739 0.692638 -0.047203
vn -0.577350 -0.577350 0.577350
vn 0.000000 -0.707107 0.707107
vn 0.000000 0.707107 0.707107
vn -0.577350 0.577350 0.577350
vn 0.000000 -0.707107 -0.707107
vn -0.047203 -0.692638 -0.719739
vn -0.047203 0.692638 -0.719739
vn 0.000000 0.707107 -0.707107
vn -0.719739 0.692638 -0.047203
vn -0.709211 0.678910 -0.190003
vn -0.709211 -0.678910 -0.190003
vn -0.719739 -0.692638 -0.047203
vn -0.709211 0.678910 -0.190003
vn -0.635888 0.678888 -0.367093
vn -0.635888 -0.678888 -0.367093
vn -0.709211 -0.678910 -0.190003
vn -0.635888 0.678888 -0.367093
vn -0.519189 0.678886 -0.519189
vn -0.519189 -0.678886 -0.519189
vn -0.635888 -0.678888 -0.367093
vn -0.519189 0.678886 -0.519189
vn -0.367093 0.678888 -0.635888
vn -0.367093 -0.678888 -0.635888
vn -0.519189 -0.678886 -0.519189
vn -0.367093 0.678888 -0.635888
vn -0.190003 0.678910 -0.709211
vn -0.190003 -0.678910 -0.709211
vn -0.367093 -0.678888 -0.635888
vn -0.190003 0.678910 -0.709211
vn -0.047203 0.692638 -0.719739
vn -0.047203 -0.692638 -0.719739
vn -0.190003 -0.678910 -0.709211
s off
g Bench_LO_FULL:Mesh
usemtl initialShadingGroup
f 10/1/1 3/2/2 2/3/3 6/4/4
f 10/5/5 9/6/6 4/7/7 3/8/8
f 5/9/9 6/10/10 2/11/11 1/12/12
f 5/13/13 1/14/14 4/15/15 9/16/16
f 2/17/17 3/18/18 4/19/19 1/20/20
f 10/1/21 6/4/22 8/21/23 11/22/24
f 10/5/25 11/23/26 12/24/27 9/6/28
f 5/9/29 7/25/30 8/26/31 6/10/32
f 5/13/33 9/16/34 12/27/35 7/28/36
f 8/29/37 7/30/38 12/31/39 11/32/40
f 22/33/41 24/34/42 25/35/43 26/36/44 27/37/45 28/38/46 23/39/47 32/40/48 30/41/49 14/42/50
f 31/43/51 15/44/52 17/45/53 18/46/54 19/47/55 20/48/56 21/49/57 16/50/58 13/51/59 29/52/60
f 42/53/61 34/54/62 30/41/63 32/40/64 43/55/65 48/56/66 47/57/67 46/58/68 45/59/69 44/60/70
f 31/43/71 29/52/72 33/61/73 36/62/74 41/63/75 40/64/76 39/65/77 38/66/78 37/67/79 35/68/80
f 16/69/81 22/70/82 14/71/83 13/72/84
f 13/73/85 14/74/86 30/75/87 29/76/88
f 31/77/89 32/78/90 23/79/91 15/80/92
f 22/70/93 16/69/94 21/81/95 24/82/96
f 24/82/97 21/81/98 20/83/99 25/84/100
f 25/84/101 20/83/102 19/85/103 26/86/104
f 26/86/105 19/85/106 18/87/107 27/88/108
f 27/88/109 18/87/110 17/89/111 28/90/112
f 28/90/113 17/89/114 15/80/115 23/79/116
f 36/91/117 33/92/118 34/93/119 42/94/120
f 33/95/121 29/76/122 30/75/123 34/96/124
f 31/77/125 35/97/126 43/98/127 32/78/128
f 42/94/129 44/99/130 41/100/131 36/91/132
f 44/99/133 45/101/134 40/102/135 41/100/136
f 45/101/137 46/103/138 39/104/139 40/102/140
f 46/103/141 47/105/142 38/106/143 39/104/144
f 47/105/145 48/107/146 37/108/147 38/106/148
f 48/107/149 43/98/150 35/97/151 37/108/152
